M48
; DRILL file {KiCad (5.1.9)-1} date 04/24/21 19:56:41
; FORMAT={-:-/ absolute / inch / decimal}
; #@! TF.CreationDate,2021-04-24T19:56:41+02:00
; #@! TF.GenerationSoftware,Kicad,Pcbnew,(5.1.9)-1
; #@! TF.FileFunction,Plated,1,2,PTH
FMAT,2
INCH
T1C0.0295
T2C0.0354
T3C0.0394
T4C0.0472
%
G90
G05
T1
X5.1974Y-2.8112
X5.2762Y-2.8112
X6.15Y-2.85
X6.2Y-2.85
X6.25Y-2.85
X6.4Y-2.85
X6.45Y-2.85
X6.5Y-2.85
T2
X5.4907Y-2.8526
X5.5907Y-2.8526
X5.786Y-2.8526
X5.886Y-2.8526
T3
X6.1487Y-2.3459
X6.1752Y-2.4246
X6.372Y-2.4246
X6.3985Y-2.5033
X6.6227Y-2.3459
X6.6492Y-2.4246
X6.846Y-2.4246
X6.8725Y-2.5033
T4
X5.1581Y-2.0593
X5.1581Y-2.3171
X5.1581Y-2.575
X5.9581Y-2.0593
X5.9581Y-2.3171
X5.9581Y-2.575
X6.1136Y-2.0593
X6.9136Y-2.0593
T0
M30
